<?xml version="1.0" encoding="UTF-8"?><svg id="a" xmlns="http://www.w3.org/2000/svg" width="1091.25" height="258" viewBox="0 0 1091.25 258"><path d="M139.83,23.85c47.2,3.05,68.8,35.88,73.32,76.37,4.44,39.54-37.97,72.45-84.99,66.88-47.02-5.57-78.29-56.26-78.72-96.84-.61-50.07,58.43-48.51,90.39-46.42ZM784.39,39.01c62.61-25.6,110.86,3.05,142.03,52.25,30.48,48.07-3.48,116.87-67.32,139.16-63.83,22.29-160.75-55.65-186.7-107.46-32.22-64.09,69.66-66.62,111.99-83.95h0ZM1044.05,49.5c-5.22,15.85-21.34,13.76-38.58,11.49-16.89-2.26-27.61-13.06-22.29-28.91,5.22-15.85,10.36-19.33,27.34-15.59,21.07,4.53,38.84,17.16,33.53,33h0Z" style="fill:#f8f4af; fill-rule:evenodd;"/><path d="M1060.16,23.12c2.87,5.83-1.05,14.28-7.92,17.59-6.88,3.4-13.67,1.31-16.55-4.53-2.87-5.83-.78-13.58,6.18-16.63,6.79-2.96,15.41-2.26,18.29,3.57Z" style="fill:#28a8e0; fill-rule:evenodd;"/><path d="M227.61,230.15c1.83,5.31-.78,8.71-6.36,10.62-5.57,1.92-15.33-3.48-17.16-8.8s6.36-9.84,11.93-11.84c5.57-1.92,9.75,4.7,11.58,10.01h0Z" style="fill:#08a44c; fill-rule:evenodd;"/><path d="M261.39,24.72c5.49-2.7,12.71-.78,16.46,4.7,4.18,5.92,2.96,13.67-2.7,17.59-5.31,3.74-12.37,1.83-16.72-4.44-2.09-3.05-3.13-6.18-2.96-9.14.17-3.13,1.74-5.92,4.35-7.75.52-.44,1.05-.7,1.57-.96h0ZM272.02,43.97c.35-.17.61-.35.96-.52,4.27-2.96,4.18-8.45,1.65-12.1-2.53-3.66-8.36-5.66-12.54-2.79-1.65,1.13-2.53,2.79-2.61,4.7-.09,2.09.7,4.44,2.26,6.71,2.87,4.09,6.97,5.66,10.28,4.01Z" style="fill:#515251;"/><path d="M63.19,51.46c-7.75,3.31-13.58,6.79-23.77,2.79-8.45-3.31-9.58-15.07-7.49-22.82,2.35-8.71,15.15-9.49,28.21-1.65,7.75,4.79,11.41,18.2,3.05,21.68Z" style="fill:#e64a52; fill-rule:evenodd;"/><path d="M1054.35,184.17c.09,2.79-3.74,5.83-6.79,6.01-3.05.09-6.62-2.09-6.71-4.96-.09-2.79,4.01-6.44,7.14-6.53,3.05-.09,6.27,2.7,6.36,5.49Z" style="fill:#ed794a; fill-rule:evenodd;"/></svg>