<svg xmlns="http://www.w3.org/2000/svg" xml:space="preserve" overflow="visible" viewBox="0 0 1016.6 258.5"><style>.st0{fill-rule:evenodd;clip-rule:evenodd;fill:#f9f3ad}</style><path class="st0" d="M124.9 8.9c54.2 3.5 79 41.2 84.2 87.7 5.1 45.4-43.6 83.2-97.6 76.8S21.6 108.8 21.1 62.2C20.4 4.7 88.2 6.5 124.9 8.9zM706.6 26.3c71.9-29.4 127.3 3.5 163.1 60 35 55.2-4 134.2-77.3 159.8s-182.3-63.9-212.1-123.4c-37-73.6 77.7-76.5 126.3-96.4zM957.7 39.5c-6 18.2-24.5 15.8-44.3 13.2-19.4-2.6-31.7-15-25.6-33.2 6-18.2 11.9-22.2 31.4-17.9 24.2 5.2 44.6 19.7 38.5 37.9z"/><path d="M976.2 9.2c3.3 6.7-1.2 16.4-9.1 20.2-7.9 3.9-15.7 1.5-19-5.2s-.9-15.6 7.1-19.1c7.8-3.4 17.7-2.6 21 4.1z" fill-rule="evenodd" clip-rule="evenodd" fill="#28a9e0"/><path d="M225.7 245.8c2.1 6.1-.9 10-7.3 12.2-6.4 2.2-17.6-4-19.7-10.1s7.3-11.3 13.7-13.6c6.4-2.2 11.2 5.4 13.3 11.5z" fill-rule="evenodd" clip-rule="evenodd" fill="#0ca44e"/><path d="M264.5 9.9c6.3-3.1 14.6-.9 18.9 5.4 4.8 6.8 3.4 15.7-3.1 20.2-6.1 4.3-14.2 2.1-19.2-5.1-2.4-3.5-3.6-7.1-3.4-10.5.2-3.6 2-6.8 5-8.9.6-.5 1.2-.8 1.8-1.1zM276.7 32c.4-.2.7-.4 1.1-.6 4.9-3.4 4.8-9.7 1.9-13.9-2.9-4.2-9.6-6.5-14.4-3.2-1.9 1.3-2.9 3.2-3 5.4-.1 2.4.8 5.1 2.6 7.7 3.3 4.7 8 6.5 11.8 4.6z" fill="#515151"/><path d="M36.9 40.6c-8.9 3.8-15.6 7.8-27.3 3.2C-.1 40-1.4 26.5 1 17.6c2.7-10 17.4-10.9 32.4-1.9 8.9 5.5 13.1 20.9 3.5 24.9z" fill-rule="evenodd" clip-rule="evenodd" fill="#e64a52"/><path d="M1016.6 188.4c.1 3.2-4.3 6.7-7.8 6.9-3.5.1-7.6-2.4-7.7-5.7-.1-3.2 4.6-7.4 8.2-7.5 3.5-.1 7.2 3.1 7.3 6.3z" fill-rule="evenodd" clip-rule="evenodd" fill="#ee794a"/></svg>